M48
; DRILL file {KiCad (6.0.1)} date Wed Sep 27 15:21:02 2023
; FORMAT={-:-/ absolute / inch / decimal}
; #@! TF.CreationDate,2023-09-27T15:21:02+01:00
; #@! TF.GenerationSoftware,Kicad,Pcbnew,(6.0.1)
; #@! TF.FileFunction,Plated,1,2,PTH
FMAT,2
INCH
; #@! TA.AperFunction,Plated,PTH,ComponentDrill
T1C0.0315
; #@! TA.AperFunction,Plated,PTH,ComponentDrill
T2C0.0394
%
G90
G05
T2
X3.3Y-2.8
X3.3Y-3.5
X3.3Y-3.6017
X3.3Y-4.2017
X3.3Y-4.3
X3.3Y-4.999
X3.4Y-2.8
X3.4Y-3.5
X3.4Y-3.6017
X3.4Y-4.2017
X3.4Y-4.3
X3.4Y-4.999
X3.5Y-2.8
X3.5Y-3.5
X3.5Y-3.6017
X3.5Y-4.2017
X3.5Y-4.3
X3.5Y-4.999
X3.6Y-2.8
X3.6Y-3.5
X3.6Y-3.6017
X3.6Y-4.2017
X3.6Y-4.3
X3.6Y-4.999
X3.7Y-3.5
X3.7Y-3.6017
X3.7Y-4.2017
X3.7Y-4.3
X3.7Y-4.999
X3.8Y-3.5
X3.8Y-3.6017
X3.8Y-4.2017
X3.8Y-4.3
X3.8Y-4.999
X3.9Y-2.801
X3.9Y-3.5
X3.9Y-3.6017
X3.9Y-4.2017
X3.9Y-4.3
X3.9Y-4.999
X4.0Y-2.801
X4.0Y-3.5
X4.0Y-3.6017
X4.0Y-4.2017
X4.0Y-4.3
X4.0Y-4.999
X4.1Y-2.801
X4.1Y-3.5
X4.1Y-3.6017
X4.1Y-4.2017
X4.1Y-4.3
X4.2Y-2.801
X4.2Y-3.5
X4.2Y-3.6017
X4.2Y-4.2017
X4.2Y-4.3
X4.3Y-3.5
X4.3Y-3.6017
X4.3Y-4.2017
X4.3Y-4.3
X4.3Y-5.0
X4.4Y-3.5
X4.4Y-3.6017
X4.4Y-4.2017
X4.4Y-4.3
X4.4Y-5.0
X4.5Y-2.8
X4.5Y-3.5
X4.5Y-3.6017
X4.5Y-4.2017
X4.5Y-4.3
X4.5Y-5.0
X4.6Y-2.8
X4.6Y-3.5
X4.6Y-3.6017
X4.6Y-4.2017
X4.6Y-4.3
X4.6Y-5.0
X4.7Y-2.8
X4.7Y-3.5
X4.7Y-3.6017
X4.7Y-4.2017
X4.7Y-4.3
X4.7Y-5.0
X4.8Y-2.8
X4.8Y-3.5
X4.8Y-3.6017
X4.8Y-4.2017
X4.8Y-4.3
X4.8Y-5.0
X4.9Y-2.8
X4.9Y-3.5
X4.9Y-3.6017
X4.9Y-4.2017
X4.9Y-4.3
X4.9Y-5.0
X5.0Y-2.8
X5.0Y-3.5
X5.0Y-3.6017
X5.0Y-4.2017
X5.0Y-4.3
X5.0Y-5.0
X5.1Y-3.5
X5.1Y-3.6017
X5.1Y-4.2017
X5.1Y-4.3
X5.2Y-3.5
X5.2Y-3.6017
X5.2Y-4.2017
X5.2Y-4.3
X5.3Y-2.8
X5.3Y-5.0
X5.4Y-2.8
X5.4Y-5.0
X5.5Y-2.8
X5.5Y-5.0
X5.6Y-2.8
X5.6Y-5.0
X5.7Y-2.8
X5.7Y-5.0
X5.8Y-2.8
X5.8Y-5.0
X5.9Y-2.8
X5.9Y-5.0
X6.0Y-2.8
X6.0Y-3.7
X6.0Y-3.8
X6.0Y-3.9
X6.0Y-4.0
X6.0Y-4.1
X6.0Y-4.2
X6.0Y-5.0
T1
G00X2.8433Y-2.9075
M15
G01X2.8157Y-2.9075
M16
G05
G00X2.8433Y-3.0925
M15
G01X2.8157Y-3.0925
M16
G05
G00X2.8433Y-3.5075
M15
G01X2.8157Y-3.5075
M16
G05
G00X2.8433Y-3.6925
M15
G01X2.8157Y-3.6925
M16
G05
G00X2.8925Y-2.9862
M15
G01X2.8925Y-3.0138
M16
G05
G00X2.8925Y-3.5862
M15
G01X2.8925Y-3.6138
M16
G05
T2
G00X2.702Y-4.3311
M15
G01X2.702Y-4.4177
M16
G05
G00X2.8791Y-4.5634
M15
G01X2.7925Y-4.5634
M16
G05
G00X2.95Y-4.3232
M15
G01X2.95Y-4.4256
M16
G05
T0
M30
