M48
; DRILL file {KiCad (6.0.1)} date Wed Sep 27 15:27:46 2023
; FORMAT={-:-/ absolute / inch / decimal}
; #@! TF.CreationDate,2023-09-27T15:27:46+01:00
; #@! TF.GenerationSoftware,Kicad,Pcbnew,(6.0.1)
; #@! TF.FileFunction,Plated,1,2,PTH
FMAT,2
INCH
; #@! TA.AperFunction,Plated,PTH,ComponentDrill
T1C0.0315
; #@! TA.AperFunction,Plated,PTH,ComponentDrill
T2C0.0394
; #@! TA.AperFunction,Plated,PTH,ComponentDrill
T3C0.0550
%
G90
G05
T1
X5.1996Y-3.0496
X5.1996Y-3.1496
X5.1996Y-3.2496
X5.2996Y-3.3996
X5.398Y-3.3996
X5.4996Y-3.0496
X5.4996Y-3.1496
X5.4996Y-3.2496
X5.6496Y-2.9996
X5.6496Y-3.3996
X5.7996Y-2.9996
X5.7996Y-3.3996
X5.9496Y-2.9996
X5.9496Y-3.3996
X6.0992Y-2.9996
X6.0992Y-3.3996
X6.2492Y-2.9996
X6.2492Y-3.3996
T2
X4.4Y-2.5
X4.5Y-2.5
X4.6Y-2.5
X4.7Y-2.5
T3
X5.0048Y-2.568
X5.1033Y-2.6665
X5.3Y-2.5681
X5.4967Y-2.6665
X5.5952Y-2.568
X5.8548Y-2.568
X5.9533Y-2.6665
X6.15Y-2.5681
X6.3467Y-2.6665
X6.4452Y-2.568
T0
M30
