M48
; DRILL file {KiCad (6.0.1)} date Wed Sep 27 15:26:09 2023
; FORMAT={-:-/ absolute / inch / decimal}
; #@! TF.CreationDate,2023-09-27T15:26:09+01:00
; #@! TF.GenerationSoftware,Kicad,Pcbnew,(6.0.1)
; #@! TF.FileFunction,NonPlated,1,2,NPTH
FMAT,2
INCH
; #@! TA.AperFunction,NonPlated,NPTH,ComponentDrill
T1C0.0787
%
G90
G05
T1
X2.9268Y-2.1
X2.9268Y-3.7
X2.9283Y-2.9
X2.9283Y-4.5
X3.2732Y-2.1
X3.2732Y-3.7
X3.2748Y-2.9
X3.2748Y-4.5
X3.7268Y-2.1
X3.7268Y-3.7
X3.7268Y-4.5
X3.7283Y-2.9
X4.0732Y-2.1
X4.0732Y-3.7
X4.0732Y-4.5
X4.0748Y-2.9
X4.5268Y-2.1
X4.5268Y-3.7
X4.5268Y-4.5
X4.5283Y-2.9
X4.8732Y-2.1
X4.8732Y-3.7
X4.8732Y-4.5
X4.8748Y-2.9
X5.3283Y-2.1
X5.3283Y-2.9
X5.3283Y-3.7
X5.3283Y-4.5
X5.6748Y-2.1
X5.6748Y-2.9
X5.6748Y-3.7
X5.6748Y-4.5
T0
M30
