M48
; DRILL file {KiCad (6.0.1)} date Wed Sep 27 15:26:09 2023
; FORMAT={-:-/ absolute / inch / decimal}
; #@! TF.CreationDate,2023-09-27T15:26:09+01:00
; #@! TF.GenerationSoftware,Kicad,Pcbnew,(6.0.1)
; #@! TF.FileFunction,Plated,1,2,PTH
FMAT,2
INCH
; #@! TA.AperFunction,Plated,PTH,ComponentDrill
T1C0.0315
; #@! TA.AperFunction,Plated,PTH,ComponentDrill
T2C0.0394
%
G90
G05
T1
X2.0504Y-2.6106
X2.0504Y-2.7106
X2.0504Y-2.8106
X2.0504Y-2.9106
X2.0504Y-3.0106
X2.0504Y-3.1106
X2.0504Y-3.2106
X2.0504Y-3.3106
X2.0504Y-4.0
X2.0504Y-4.1
X2.0504Y-4.2
X2.0504Y-4.3
X2.0504Y-4.4
X2.0504Y-4.5
X2.0504Y-4.6
X2.0504Y-4.7
X2.3504Y-2.6106
X2.3504Y-2.7106
X2.3504Y-2.8106
X2.3504Y-2.9106
X2.3504Y-3.0106
X2.3504Y-3.1106
X2.3504Y-3.2106
X2.3504Y-3.3106
X2.3504Y-4.0
X2.3504Y-4.1
X2.3504Y-4.2
X2.3504Y-4.3
X2.3504Y-4.4
X2.3504Y-4.5
X2.3504Y-4.6
X2.3504Y-4.7
T2
X1.8Y-1.7
X1.9Y-1.7
X2.0Y-1.7
X2.1Y-1.7
X2.2Y-1.7
X2.3Y-1.7
X2.4Y-1.7
X2.5Y-1.7
X3.0016Y-2.3756
X3.0016Y-3.9756
X3.0031Y-3.1756
X3.0031Y-4.7756
X3.1Y-2.3756
X3.1Y-3.9756
X3.1016Y-3.1756
X3.1016Y-4.7756
X3.1984Y-2.3756
X3.1984Y-3.9756
X3.2Y-3.1756
X3.2Y-4.7756
X3.8016Y-2.3756
X3.8016Y-3.9756
X3.8016Y-4.7756
X3.8031Y-3.1756
X3.9Y-2.3756
X3.9Y-3.9756
X3.9Y-4.7756
X3.9016Y-3.1756
X3.9984Y-2.3756
X3.9984Y-3.9756
X3.9984Y-4.7756
X4.0Y-3.1756
X4.6016Y-2.3756
X4.6016Y-3.9756
X4.6016Y-4.7756
X4.6031Y-3.1756
X4.7Y-2.3756
X4.7Y-3.9756
X4.7Y-4.7756
X4.7016Y-3.1756
X4.7984Y-2.3756
X4.7984Y-3.9756
X4.7984Y-4.7756
X4.8Y-3.1756
X5.4031Y-2.3756
X5.4031Y-3.1756
X5.4031Y-3.9756
X5.4031Y-4.7756
X5.5016Y-2.3756
X5.5016Y-3.1756
X5.5016Y-3.9756
X5.5016Y-4.7756
X5.6Y-2.3756
X5.6Y-3.1756
X5.6Y-3.9756
X5.6Y-4.7756
T0
M30
