M48
; DRILL file {KiCad (6.0.1)} date Sun Nov 12 16:25:04 2023
; FORMAT={-:-/ absolute / inch / decimal}
; #@! TF.CreationDate,2023-11-12T16:25:04+00:00
; #@! TF.GenerationSoftware,Kicad,Pcbnew,(6.0.1)
; #@! TF.FileFunction,Plated,1,2,PTH
FMAT,2
INCH
; #@! TA.AperFunction,Plated,PTH,ComponentDrill
T1C0.0315
; #@! TA.AperFunction,Plated,PTH,ComponentDrill
T2C0.0354
; #@! TA.AperFunction,Plated,PTH,ComponentDrill
T3C0.0394
%
G90
G05
T1
X5.3516Y-2.7
X5.3516Y-3.15
X5.3516Y-3.9
X5.3516Y-4.2
X5.4Y-2.85
X5.4Y-3.0
X5.4016Y-3.75
X5.4016Y-4.05
X5.4984Y-2.85
X5.4984Y-3.0
X5.5Y-3.75
X5.5Y-4.05
X5.5484Y-2.7
X5.5484Y-3.15
X5.5484Y-3.9
X5.5484Y-4.2
X6.0Y-2.75
X6.0Y-2.9
X6.0Y-3.3508
X6.0Y-3.5008
X6.0Y-3.6508
X6.0Y-3.8
X6.1016Y-3.0508
X6.1016Y-3.2008
X6.1016Y-3.95
X6.1016Y-4.1
X6.2984Y-3.0508
X6.2984Y-3.2008
X6.2984Y-3.95
X6.2984Y-4.1
X6.4Y-2.75
X6.4Y-2.9
X6.4Y-3.3508
X6.4Y-3.5008
X6.4Y-3.6508
X6.4Y-3.8
T3
X4.5Y-3.4
X4.5Y-3.5
X4.5Y-3.6
X4.5Y-3.7
X4.5Y-3.8
X4.5Y-3.9
X4.5Y-4.0
X4.5Y-4.1
X4.501Y-2.8
X4.501Y-2.9
X4.501Y-3.0
X4.501Y-3.1
X5.1Y-2.8
X5.1Y-2.9
X5.1Y-3.0
X5.1Y-3.1
X5.1Y-3.2
X5.1Y-3.3
X5.1Y-3.4
X5.1Y-3.5
X5.1Y-3.6
X5.1Y-3.7
X5.1Y-3.8
X5.1Y-3.9
X5.1Y-4.0
X5.1Y-4.1
X5.799Y-2.8
X5.799Y-2.9
X5.799Y-3.0
X5.799Y-3.1
X5.799Y-3.2
X5.799Y-3.3
X5.799Y-3.4
X5.799Y-3.5
X5.799Y-3.6
X5.799Y-3.7
X5.799Y-3.8
X5.799Y-3.9
X5.799Y-4.0
X5.799Y-4.1
X6.9976Y-2.65
X6.9976Y-2.75
X6.9976Y-2.85
X6.9976Y-2.95
X6.9976Y-3.05
X6.9976Y-3.15
T2
G00X6.9886Y-3.8531
M15
G01X6.9571Y-3.8531
M16
G05
G00X6.9886Y-3.9516
M15
G01X6.9571Y-3.9516
M16
G05
G00X6.9886Y-4.1484
M15
G01X6.9571Y-4.1484
M16
G05
G00X6.9886Y-4.2469
M15
G01X6.9571Y-4.2469
M16
G05
G00X6.9902Y-3.3531
M15
G01X6.9587Y-3.3531
M16
G05
G00X6.9902Y-3.4516
M15
G01X6.9587Y-3.4516
M16
G05
G00X6.9902Y-3.6484
M15
G01X6.9587Y-3.6484
M16
G05
G00X6.9902Y-3.7469
M15
G01X6.9587Y-3.7469
M16
G05
G00X7.1697Y-4.0343
M15
G01X7.1697Y-4.0657
M16
G05
G00X7.1713Y-3.5343
M15
G01X7.1713Y-3.5657
M16
G05
T0
M30
